PathFileType	4	(X/Y/Z)	C:\Users\Graham\Documents\MATLAB\MOtoNMS_v2_2\MyData\ElaboratedData\S7\22-05-17\staticElaborations\Static1\Static\\Static1.trc
DataRate	CameraRate	NumFrames	NumMarkers	Units	OrigDataRate	DataStartFrame
100	100	4	38	mm	100	2
Frame#	Time	V_Sacral			R_ASIS			L_ASIS			R_Knee_Lat			R_Knee_Med			R_Thigh_Upper			R_Thigh_Front			R_Thigh_Rear			L_Knee_Lat			L_Knee_Med			L_Thigh_Upper			L_Thigh_Front			L_Thigh_Rear			R_Ankle_Lat			R_Ankle_Med			R_Shank_Upper			R_Shank_Front			R_Shank_Rear			L_Ankle_Lat			L_Ankle_Med			L_Shank_Upper			L_Shank_Front			L_Shank_Rear			R_Heel			R_MTP1			R_MTP5			L_Heel			L_MTP1			L_MTP5			Clavicle			R_Acromium			L_Acromium			LAJC			RAJC			LHJC			RHJC			LKJC			RKJC		
		X1	Y1	Z1	X2	Y2	Z2	X3	Y3	Z3	X4	Y4	Z4	X5	Y5	Z5	X6	Y6	Z6	X7	Y7	Z7	X8	Y8	Z8	X9	Y9	Z9	X10	Y10	Z10	X11	Y11	Z11	X12	Y12	Z12	X13	Y13	Z13	X14	Y14	Z14	X15	Y15	Z15	X16	Y16	Z16	X17	Y17	Z17	X18	Y18	Z18	X19	Y19	Z19	X20	Y20	Z20	X21	Y21	Z21	X22	Y22	Z22	X23	Y23	Z23	X24	Y24	Z24	X25	Y25	Z25	X26	Y26	Z26	X27	Y27	Z27	X28	Y28	Z28	X29	Y29	Z29	X30	Y30	Z30	X31	Y31	Z31	X32	Y32	Z32	X33	Y33	Z33	X34	Y34	Z34	X35	Y35	Z35	X36	Y36	Z36	X37	Y37	Z37	X38	Y38	Z38	

33	0.320000	-314.191624	1053.636579	18.694895	-121.946673	1016.519839	162.289475	-144.407318	1015.451450	-110.058398	-196.213603	515.526310	180.664139	-193.056848	511.783616	67.912296	-108.710163	799.060305	121.697128	-136.294393	685.491829	85.724411	-117.224218	683.930977	162.333037	-213.533834	514.067242	-130.451759	-217.948118	505.270873	-12.628225	-117.445487	801.272428	-63.208496	-140.765978	685.945797	-20.854262	-125.609077	678.218085	-91.381667	-309.751274	82.097620	166.500386	-258.884839	82.821138	91.406844	-174.895378	345.043041	155.126769	-214.202851	241.594630	110.054079	-230.968032	240.469104	184.515148	-294.415420	73.452749	-122.199952	-261.198885	89.971216	-41.149090	-189.677441	332.574874	-106.259545	-219.149399	221.021536	-65.039577	-228.578056	223.865178	-135.981594	-354.908961	36.947998	102.668451	-139.792772	54.917657	169.756317	-164.668874	46.691242	229.164945	-348.610276	35.051563	-69.313820	-121.737346	51.677138	-87.115535	-147.458363	42.400532	-156.667414	-118.882525	1404.257101	22.735001	-214.538938	1469.979367	213.563188	-214.016873	1476.063684	-175.571314	-277.807152	81.711982	-81.674521	-284.318057	82.459379	128.953615	-213.149736	935.859760	-64.787043	-197.125725	936.621977	129.513044	-215.740976	509.669057	-71.539992	-194.635225	513.654963	124.288217	
34	0.330000	-314.665187	1053.609196	19.077336	-122.358080	1016.569134	162.559976	-144.943404	1015.525945	-109.773019	-196.402322	515.523746	180.816255	-193.317226	511.839001	68.072045	-109.061387	799.124264	121.890214	-136.711100	685.508698	85.896120	-117.476531	683.974639	162.489997	-213.678023	514.173817	-130.281350	-218.051452	505.295861	-12.450835	-117.798786	801.384598	-62.999652	-141.089655	686.038717	-20.642601	-125.907501	678.314840	-91.173282	-309.725662	82.064881	166.536769	-258.906695	82.809863	91.406713	-175.016867	345.044667	155.160468	-214.314676	241.603517	110.086312	-231.036963	240.438462	184.557906	-294.418783	73.463714	-122.185289	-261.195341	89.968080	-41.130745	-189.759189	332.613900	-106.164386	-219.186354	221.040569	-64.990066	-228.629236	223.903449	-135.915748	-354.912968	36.918663	102.675240	-139.797881	54.905681	169.733930	-164.670683	46.715055	229.155444	-348.607725	35.057636	-69.311362	-121.736548	51.672095	-87.115454	-147.457415	42.401318	-156.667245	-119.404343	1404.292223	23.022478	-214.922495	1469.990358	213.920202	-214.679968	1476.103619	-175.198492	-277.807062	81.715897	-81.658017	-284.316178	82.437372	128.971741	-213.621589	935.895856	-64.481726	-197.508608	936.640094	129.807994	-215.864737	509.734839	-71.366092	-194.859774	513.681373	124.444150	
35	0.340000	-315.156399	1053.576549	19.473498	-122.787485	1016.609961	162.847528	-145.495294	1015.595238	-109.468794	-196.583745	515.510793	180.977916	-193.558154	511.885881	68.243002	-109.426102	799.186783	122.097740	-137.106887	685.532809	86.081454	-117.728105	684.017712	162.658377	-213.842752	514.279281	-130.104386	-218.171780	505.339299	-12.262651	-118.180818	801.487253	-62.778605	-141.430494	686.129785	-20.418271	-126.224784	678.411238	-90.954219	-309.701459	82.025978	166.574873	-258.930108	82.796936	91.408222	-175.133672	345.035448	155.206336	-214.423891	241.604394	110.124126	-231.107943	240.399472	184.604928	-294.424021	73.470097	-122.171673	-261.195338	89.961250	-41.113380	-189.855353	332.653567	-106.070496	-219.233334	221.058061	-64.940735	-228.691209	223.940126	-135.848209	-354.919752	36.883344	102.684777	-139.805534	54.894986	169.711006	-164.674463	46.740592	229.145422	-348.606253	35.059373	-69.308575	-121.736877	51.668181	-87.115683	-147.456938	42.402211	-156.667513	-119.934065	1404.315748	23.327659	-215.313122	1469.987317	214.294647	-215.353826	1476.136175	-174.807120	-277.809680	81.715674	-81.642527	-284.315784	82.411457	128.991547	-214.110357	935.927382	-64.159349	-197.909963	936.651315	130.118825	-216.007266	509.809290	-71.183518	-195.070950	513.698337	124.610459	
36	0.350000	-315.668367	1053.535602	19.885181	-123.234753	1016.641781	163.153146	-146.065870	1015.659442	-109.144314	-196.750247	515.487062	181.147105	-193.770322	511.923769	68.423894	-109.799038	799.248813	122.320060	-137.473789	685.565113	86.280755	-117.973244	684.060434	162.838175	-214.025719	514.382253	-129.919573	-218.312091	505.401971	-12.063425	-118.590735	801.581646	-62.544304	-141.789288	686.217106	-20.182380	-126.560202	678.508251	-90.724614	-309.678237	81.982011	166.613382	-258.954470	82.782422	91.410249	-175.240442	345.014091	155.265190	-214.526418	241.596796	110.166448	-231.175746	240.351500	184.655134	-294.431020	73.472004	-122.159119	-261.198777	89.950783	-41.096711	-189.964076	332.693221	-105.975784	-219.290024	221.073133	-64.890194	-228.761519	223.974796	-135.778584	-354.928714	36.842801	102.696672	-139.814714	54.885313	169.687169	-164.679978	46.767793	229.134328	-348.605822	35.056636	-69.305530	-121.738302	51.665460	-87.115950	-147.456969	42.403213	-156.668012	-120.471436	1404.325511	23.652383	-215.710995	1469.969361	214.688136	-216.036647	1476.158917	-174.397346	-277.814899	81.711393	-81.627915	-284.316353	82.382217	129.011816	-214.617335	935.953230	-63.818045	-198.328931	936.654059	130.447133	-216.168905	509.892112	-70.991499	-195.260284	513.705416	124.785500	
